<svg width="183" height="31" viewBox="0 0 183 31" fill="none" xmlns="http://www.w3.org/2000/svg">
<path d="M37.2 0.96L36.44 2.12C33.5867 6.54667 31.1333 10.4667 29.08 13.88C27.0533 17.2667 25.36 20.3867 24 23.24V30H13.56V22.56C12.5733 20.56 11.4133 18.5067 10.08 16.4C8.74667 14.2667 6.85333 11.3467 4.4 7.64C2.48 4.81333 1.01333 2.58667 0 0.96H11.2C12 2.58667 13.3067 5 15.12 8.2C16.9333 11.4533 18.1733 13.7467 18.84 15.08C19.7733 13.1333 21.0267 10.7467 22.6 7.92C24.44 4.61333 25.68 2.29333 26.32 0.96H37.2ZM54.7516 30.4C48.6449 30.4 44.1516 29.08 41.2716 26.44C38.3916 23.7733 36.9516 20.04 36.9516 15.24C36.9516 10.4933 38.3782 6.78667 41.2316 4.12C44.1116 1.45333 48.6182 0.119998 54.7516 0.119998C60.9116 0.119998 65.4182 1.45333 68.2716 4.12C71.1516 6.78667 72.5916 10.4933 72.5916 15.24C72.5916 20.0667 71.1649 23.8 68.3116 26.44C65.4582 29.08 60.9382 30.4 54.7516 30.4ZM54.7516 22.24C57.7116 22.24 59.8449 21.68 61.1516 20.56C62.4582 19.4133 63.1116 17.64 63.1116 15.24C63.1116 12.8933 62.4582 11.1467 61.1516 10C59.8449 8.85333 57.7116 8.28 54.7516 8.28C51.8182 8.28 49.6982 8.85333 48.3916 10C47.0849 11.1467 46.4316 12.8933 46.4316 15.24C46.4316 17.6133 47.0849 19.3733 48.3916 20.52C49.6982 21.6667 51.8182 22.24 54.7516 22.24ZM75.7797 26.56C76.6864 25.2 77.433 23.9333 78.0197 22.76C78.633 21.5867 79.2197 20.2267 79.7797 18.68C81.673 19.7733 83.873 20.6267 86.3797 21.24C88.8864 21.8533 91.2197 22.16 93.3797 22.16C95.593 22.16 97.153 21.9733 98.0597 21.6C98.9664 21.2 99.4197 20.7733 99.4197 20.32C99.4197 18.6933 96.9397 17.88 91.9797 17.88C86.5397 17.88 82.593 17.32 80.1397 16.2C77.6864 15.0533 76.4597 13.2133 76.4597 10.68C76.4597 7.08 77.953 4.42667 80.9397 2.72C83.9264 1.01333 87.8064 0.159998 92.5797 0.159998C95.353 0.159998 98.193 0.519998 101.1 1.24C104.033 1.93333 106.673 2.89333 109.02 4.12C108.246 5.88 107.433 8.02667 106.58 10.56C106.42 11.0933 106.286 11.4933 106.18 11.76C104.82 10.6667 102.766 9.76 100.02 9.04C97.273 8.29333 94.8464 7.92 92.7397 7.92C90.2064 7.92 88.4997 8.09333 87.6197 8.44C86.7397 8.76 86.2997 9.24 86.2997 9.88C86.2997 10.52 86.8997 11.04 88.0997 11.44C89.3264 11.8133 91.0864 12 93.3797 12C99.033 12 103.14 12.6533 105.7 13.96C108.26 15.24 109.54 17.2133 109.54 19.88C109.54 23.6133 108.18 26.3067 105.46 27.96C102.74 29.5867 98.6197 30.4 93.0997 30.4C90.1397 30.4 87.1264 30.08 84.0597 29.44C80.993 28.7733 78.233 27.8133 75.7797 26.56ZM146.731 0.96L145.971 2.12C143.118 6.54667 140.665 10.4667 138.611 13.88C136.585 17.2667 134.891 20.3867 133.531 23.24V30H123.091V22.56C122.105 20.56 120.945 18.5067 119.611 16.4C118.278 14.2667 116.385 11.3467 113.931 7.64C112.011 4.81333 110.545 2.58667 109.531 0.96H120.731C121.531 2.58667 122.838 5 124.651 8.2C126.465 11.4533 127.705 13.7467 128.371 15.08C129.305 13.1333 130.558 10.7467 132.131 7.92C133.971 4.61333 135.211 2.29333 135.851 0.96H146.731ZM169.746 30C168.492 27.7333 166.412 24.2667 163.506 19.6L158.826 24.24V30H148.866C149.079 24.8267 149.186 19.9867 149.186 15.48C149.186 10.9733 149.079 6.13333 148.866 0.96H158.826V12.68C163.732 7.82667 167.226 3.92 169.306 0.96H182.266L169.666 13.44C171.532 16.0533 173.626 18.8933 175.946 21.96C178.292 25.0267 180.412 27.7067 182.306 30H169.746Z" fill="#8487F6"/>
</svg>
