<svg width="24" height="24" viewBox="0 0 24 24" fill="none" xmlns="http://www.w3.org/2000/svg">
<path d="M2.23367 21.8824V22.335L2.68413 22.3799L13.9327 23.5H1.8H0.5V22.7368C0.5 20.5334 1.42371 18.4143 3.07754 16.8475C4.7323 15.2798 6.98213 14.3947 9.33333 14.3947H14.6667C17.0179 14.3947 19.2677 15.2798 20.9225 16.8475C22.5763 18.4143 23.5 20.5334 23.5 22.7368V23.4477L12.8009 22.3824H21.2663H21.7663V21.8824C21.7663 20.9735 21.5919 20.2771 21.2253 19.6425C20.8698 19.0271 20.3483 18.4988 19.7246 17.9079C18.3788 16.6329 16.5589 15.9211 14.6667 15.9211H9.33333C7.44108 15.9211 5.62124 16.6329 4.27542 17.9079C3.65171 18.4988 3.13024 19.0271 2.7747 19.6425C2.40808 20.2771 2.23367 20.9735 2.23367 21.8824ZM8.56363 1.48687C9.57859 0.84439 10.7745 0.5 12 0.5C13.644 0.5 15.2155 1.11894 16.3702 2.21283C17.5239 3.30584 18.1667 4.78234 18.1667 6.31579C18.1667 7.45983 17.8087 8.5806 17.1345 9.53647C16.4601 10.4927 15.4986 11.2419 14.3686 11.6854C13.2384 12.1289 11.9934 12.2453 10.792 12.0189C9.59067 11.7925 8.49068 11.2343 7.62983 10.4188C6.76926 9.60347 6.18653 8.56811 5.95076 7.4452C5.71504 6.32253 5.83574 5.15852 6.29893 4.09915C6.76228 3.03939 7.54891 2.1292 8.56363 1.48687ZM9.51029 9.88909C10.2495 10.357 11.1158 10.6053 12 10.6053C13.185 10.6053 14.3266 10.1595 15.1723 9.35833C16.019 8.55624 16.5 7.46242 16.5 6.31579C16.5 5.4612 16.2324 4.62821 15.7345 3.92229C15.2368 3.21673 14.5325 2.67074 13.7134 2.34933C12.8945 2.02797 11.9948 1.94426 11.127 2.10778C10.2592 2.27131 9.4586 2.67555 8.8277 3.27325C8.19651 3.87122 7.76333 4.63644 7.58753 5.47376C7.41167 6.31132 7.50221 7.17915 7.84636 7.96626C8.19034 8.75301 8.77088 9.42104 9.51029 9.88909Z" fill="white" stroke="white"/>
</svg>
