<svg width="29" height="36" viewBox="0 0 29 36" fill="none" xmlns="http://www.w3.org/2000/svg">
<path d="M14.5 8.28579C15.7137 8.28579 16.9001 8.64187 17.9092 9.30902C18.9183 9.97616 19.7048 10.9244 20.1693 12.0338C20.6337 13.1432 20.7552 14.364 20.5185 15.5418C20.2817 16.7195 19.6973 17.8014 18.8391 18.6505C17.9809 19.4996 16.8875 20.0778 15.6971 20.3121C14.5068 20.5464 13.273 20.4261 12.1517 19.9666C11.0304 19.5071 10.0721 18.7289 9.3978 17.7304C8.72353 16.732 8.36364 15.5581 8.36364 14.3573C8.36364 12.747 9.01014 11.2027 10.1609 10.0641C11.3117 8.92546 12.8725 8.28579 14.5 8.28579ZM14.5 18.0002C15.2282 18.0002 15.94 17.7865 16.5455 17.3862C17.151 16.9859 17.6229 16.417 17.9016 15.7514C18.1802 15.0857 18.2531 14.3532 18.1111 13.6466C17.969 12.9399 17.6184 12.2908 17.1034 11.7814C16.5885 11.2719 15.9325 10.9249 15.2183 10.7844C14.5041 10.6438 13.7638 10.716 13.091 10.9917C12.4183 11.2674 11.8432 11.7343 11.4387 12.3334C11.0341 12.9325 10.8182 13.6368 10.8182 14.3573C10.8182 15.3234 11.2061 16.25 11.8966 16.9332C12.587 17.6164 13.5235 18.0002 14.5 18.0002ZM14.5 1C18.0792 1.00402 21.5106 2.41259 24.0415 4.91669C26.5723 7.4208 27.9959 10.8159 28 14.3573C28 19.1234 25.774 24.1749 21.5568 28.9668C19.6619 31.1321 17.5291 33.082 15.198 34.7803C14.9917 34.9233 14.7458 35 14.4939 35C14.2419 35 13.9961 34.9233 13.7897 34.7803C11.4629 33.0813 9.33429 31.1315 7.44318 28.9668C3.2321 24.1749 1 19.1234 1 14.3573C1.00406 10.8159 2.42768 7.4208 4.95854 4.91669C7.4894 2.41259 10.9208 1.00402 14.5 1ZM14.5 32.2682C17.0359 30.2949 25.5455 23.0471 25.5455 14.3573C25.5455 11.4588 24.3817 8.67906 22.3103 6.62953C20.2389 4.58001 17.4294 3.4286 14.5 3.4286C11.5706 3.4286 8.76111 4.58001 6.68968 6.62953C4.61826 8.67906 3.45454 11.4588 3.45454 14.3573C3.45454 23.0441 11.9641 30.2949 14.5 32.2682Z" fill="#8487F6" stroke="#8487F6"/>
</svg>
