<svg width="24" height="24" viewBox="0 0 24 24" fill="none" xmlns="http://www.w3.org/2000/svg">
<path d="M16.4175 3.13131L16.5179 3.5H16.9H22C22.4371 3.5 22.8369 3.63134 23.1142 3.83934C23.3888 4.04527 23.5 4.28882 23.5 4.5V22.5C23.5 22.7112 23.3888 22.9547 23.1142 23.1607C22.8369 23.3687 22.4371 23.5 22 23.5H2C1.56287 23.5 1.16312 23.3687 0.885787 23.1607L0.587408 23.5585L0.885786 23.1607C0.611207 22.9547 0.5 22.7112 0.5 22.5V4.5C0.5 4.28882 0.611207 4.04527 0.885786 3.83934C1.16312 3.63134 1.56287 3.5 2 3.5H7.1H7.48211L7.58245 3.13131C7.77323 2.43034 8.29171 1.7652 9.09817 1.27145C9.90468 0.777669 10.9298 0.499836 11.9999 0.5L12.0001 0.5C13.0702 0.499836 14.0953 0.777669 14.9018 1.27145C15.7083 1.7652 16.2268 2.43034 16.4175 3.13131ZM17 4.75H16.5V5.25V7H10H7.5V5.25V4.75H7H3H2.5V5.25V21.75V22.25H3H21H21.5V21.75V5.25V4.75H21H17ZM16.7736 12.0102L16.7667 12.015L16.76 12.02L11.7602 15.7698C11.5767 15.9073 11.3043 15.999 11 15.999C10.6957 15.999 10.4233 15.9073 10.2398 15.7698L8.24763 14.2757C8.08565 14.143 8.03498 14.0026 8.03751 13.895C8.0401 13.7849 8.10002 13.6401 8.27676 13.5076C8.45593 13.3732 8.72037 13.2821 9.01757 13.2782C9.3114 13.2743 9.57938 13.3564 9.76743 13.4856L10.7 14.185L11 14.41L11.3 14.185L15.24 11.23L15.2468 11.2249L15.2535 11.2195C15.3402 11.1498 15.452 11.0881 15.5854 11.0435C15.7186 10.9991 15.8658 10.9741 16.0176 10.9721C16.1693 10.9701 16.3181 10.9911 16.4542 11.0323C16.5905 11.0736 16.7066 11.1328 16.7981 11.2014C16.8895 11.27 16.9509 11.3437 16.988 11.4127C17.0246 11.4806 17.0387 11.5453 17.0373 11.605C17.0359 11.6648 17.0186 11.7305 16.9777 11.7994C16.9361 11.8694 16.8697 11.943 16.7736 12.0102ZM12 5.75C12.6237 5.75 13.2414 5.56527 13.7142 5.21066C14.1898 4.85399 14.5 4.33447 14.5 3.75C14.5 3.16553 14.1898 2.64601 13.7142 2.28934C13.2414 1.93473 12.6237 1.75 12 1.75C11.3763 1.75 10.7586 1.93473 10.2858 2.28934C9.81022 2.64601 9.5 3.16553 9.5 3.75C9.5 4.33447 9.81022 4.85399 10.2858 5.21066C10.7586 5.56527 11.3763 5.75 12 5.75Z" fill="#B2B2B2" stroke="#B2B2B2"/>
</svg>
