<svg width="26" height="26" viewBox="0 0 26 26" fill="none" xmlns="http://www.w3.org/2000/svg">
<path fill-rule="evenodd" clip-rule="evenodd" d="M7.69197 1C7.41582 1 7.19197 1.22386 7.19197 1.5V2.76911H1.5C1.22386 2.76911 1 2.99296 1 3.26911V5.03823C1 6.57845 1.61185 8.05558 2.70095 9.14467C3.79005 10.2338 5.26718 10.8456 6.8074 10.8456H7.21351C7.33073 12.2026 7.92229 13.4815 8.89291 14.4521C9.86353 15.4227 11.1424 16.0142 12.4994 16.1315V23.9986H8.57653C8.30039 23.9986 8.07653 24.2225 8.07653 24.4986C8.07653 24.7748 8.30039 24.9986 8.57653 24.9986H12.9994H17.4222C17.6983 24.9986 17.9222 24.7748 17.9222 24.4986C17.9222 24.2225 17.6983 23.9986 17.4222 23.9986H13.4994V16.1315C14.8564 16.0142 16.1352 15.4227 17.1058 14.4521C18.0764 13.4815 18.668 12.2026 18.7852 10.8456H19.1913C20.7315 10.8456 22.2087 10.2338 23.2978 9.14467C24.3869 8.05558 24.9987 6.57845 24.9987 5.03823V3.26911C24.9987 2.99296 24.7749 2.76911 24.4987 2.76911H18.8068V1.5C18.8068 1.22386 18.5829 1 18.3068 1H7.69197ZM18.8068 3.76911V9.84561H19.1913C20.4663 9.84561 21.6891 9.33912 22.5907 8.43756C23.4922 7.53601 23.9987 6.31323 23.9987 5.03823V3.76911H18.8068ZM13.0037 15.153C13.0022 15.153 13.0008 15.153 12.9994 15.153C12.9979 15.153 12.9965 15.153 12.9951 15.153M2 5.03823V3.76911H7.19196V9.84561H6.8074C5.5324 9.84561 4.30962 9.33912 3.40805 8.43756C2.50649 7.53601 2 6.31323 2 5.03823Z" fill="#B2B2B2"/>
<path d="M7.19197 2.76911V3.26911C7.46811 3.26911 7.69197 3.04525 7.69197 2.76911H7.19197ZM2.70095 9.14467L3.0545 8.79112H3.0545L2.70095 9.14467ZM7.21351 10.8456L7.71166 10.8026C7.68933 10.5441 7.47298 10.3456 7.21351 10.3456V10.8456ZM8.89291 14.4521L9.24647 14.0985L8.89291 14.4521ZM12.4994 16.1315H12.9994C12.9994 15.872 12.8009 15.6557 12.5424 15.6333L12.4994 16.1315ZM12.4994 23.9986V24.4986C12.7755 24.4986 12.9994 24.2748 12.9994 23.9986H12.4994ZM13.4994 23.9986H12.9994C12.9994 24.2748 13.2232 24.4986 13.4994 24.4986V23.9986ZM13.4994 16.1315L13.4563 15.6333C13.1978 15.6557 12.9994 15.872 12.9994 16.1315H13.4994ZM17.1058 14.4521L17.4594 14.8056L17.1058 14.4521ZM18.7852 10.8456V10.3456C18.5257 10.3456 18.3094 10.5441 18.2871 10.8026L18.7852 10.8456ZM18.8068 2.76911H18.3068C18.3068 3.04525 18.5306 3.26911 18.8068 3.26911V2.76911ZM18.8068 3.76911V3.26911C18.5306 3.26911 18.3068 3.49296 18.3068 3.76911H18.8068ZM18.8068 9.84561H18.3068C18.3068 10.1218 18.5306 10.3456 18.8068 10.3456V9.84561ZM23.9987 3.76911H24.4987C24.4987 3.49296 24.2749 3.26911 23.9987 3.26911V3.76911ZM13.0037 15.653C13.2798 15.653 13.5037 15.4292 13.5037 15.153C13.5037 14.8769 13.2798 14.653 13.0037 14.653V15.653ZM12.9951 14.653C12.7189 14.653 12.4951 14.8769 12.4951 15.153C12.4951 15.4292 12.7189 15.653 12.9951 15.653V14.653ZM2 3.76911V3.26911C1.72386 3.26911 1.5 3.49296 1.5 3.76911H2ZM7.19196 3.76911H7.69196C7.69196 3.49296 7.46811 3.26911 7.19196 3.26911V3.76911ZM7.19196 9.84561V10.3456C7.46811 10.3456 7.69196 10.1218 7.69196 9.84561H7.19196ZM7.69197 1.5V0.5C7.13968 0.5 6.69197 0.947715 6.69197 1.5H7.69197ZM7.69197 2.76911V1.5H6.69197V2.76911H7.69197ZM1.5 3.26911H7.19197V2.26911H1.5V3.26911ZM1.5 3.26911V2.26911C0.947715 2.26911 0.5 2.71682 0.5 3.26911H1.5ZM1.5 5.03823V3.26911H0.5V5.03823H1.5ZM3.0545 8.79112C2.05917 7.79579 1.5 6.44584 1.5 5.03823H0.5C0.5 6.71106 1.16453 8.31536 2.34739 9.49823L3.0545 8.79112ZM6.8074 10.3456C5.39979 10.3456 4.04983 9.78645 3.0545 8.79112L2.34739 9.49823C3.53026 10.6811 5.13457 11.3456 6.8074 11.3456V10.3456ZM7.21351 10.3456H6.8074V11.3456H7.21351V10.3456ZM9.24647 14.0985C8.35942 13.2115 7.81878 12.0427 7.71166 10.8026L6.71537 10.8886C6.84268 12.3625 7.48516 13.7514 8.53936 14.8056L9.24647 14.0985ZM12.5424 15.6333C11.3022 15.5262 10.1335 14.9856 9.24647 14.0985L8.53936 14.8056C9.59356 15.8598 10.9825 16.5023 12.4563 16.6296L12.5424 15.6333ZM12.9994 23.9986V16.1315H11.9994V23.9986H12.9994ZM8.57653 24.4986H12.4994V23.4986H8.57653V24.4986ZM8.57653 24.4986V23.4986C8.02424 23.4986 7.57653 23.9463 7.57653 24.4986H8.57653ZM8.57653 24.4986H7.57653C7.57653 25.0509 8.02424 25.4986 8.57653 25.4986V24.4986ZM12.9994 24.4986H8.57653V25.4986H12.9994V24.4986ZM17.4222 24.4986H12.9994V25.4986H17.4222V24.4986ZM17.4222 24.4986V25.4986C17.9745 25.4986 18.4222 25.0509 18.4222 24.4986H17.4222ZM17.4222 24.4986H18.4222C18.4222 23.9463 17.9745 23.4986 17.4222 23.4986V24.4986ZM13.4994 24.4986H17.4222V23.4986H13.4994V24.4986ZM12.9994 16.1315V23.9986H13.9994V16.1315H12.9994ZM16.7523 14.0985C15.8652 14.9856 14.6965 15.5262 13.4563 15.6333L13.5424 16.6296C15.0162 16.5023 16.4052 15.8598 17.4594 14.8056L16.7523 14.0985ZM18.2871 10.8026C18.1799 12.0427 17.6393 13.2115 16.7523 14.0985L17.4594 14.8056C18.5136 13.7514 19.156 12.3625 19.2834 10.8886L18.2871 10.8026ZM19.1913 10.3456H18.7852V11.3456H19.1913V10.3456ZM22.9442 8.79112C21.9489 9.78645 20.5989 10.3456 19.1913 10.3456V11.3456C20.8641 11.3456 22.4685 10.6811 23.6513 9.49823L22.9442 8.79112ZM24.4987 5.03823C24.4987 6.44584 23.9395 7.79579 22.9442 8.79112L23.6513 9.49823C24.8342 8.31536 25.4987 6.71106 25.4987 5.03823H24.4987ZM24.4987 3.26911V5.03823H25.4987V3.26911H24.4987ZM24.4987 3.26911H25.4987C25.4987 2.71682 25.051 2.26911 24.4987 2.26911V3.26911ZM18.8068 3.26911H24.4987V2.26911H18.8068V3.26911ZM18.3068 1.5V2.76911H19.3068V1.5H18.3068ZM18.3068 1.5H19.3068C19.3068 0.947715 18.859 0.5 18.3068 0.5V1.5ZM7.69197 1.5H18.3068V0.5H7.69197V1.5ZM18.3068 3.76911V9.84561H19.3068V3.76911H18.3068ZM18.8068 10.3456H19.1913V9.34561H18.8068V10.3456ZM19.1913 10.3456C20.5989 10.3456 21.9489 9.78645 22.9442 8.79112L22.2371 8.08401C21.4293 8.8918 20.3337 9.34561 19.1913 9.34561V10.3456ZM22.9442 8.79112C23.9396 7.79579 24.4987 6.44584 24.4987 5.03823H23.4987C23.4987 6.18062 23.0449 7.27622 22.2371 8.08401L22.9442 8.79112ZM24.4987 5.03823V3.76911H23.4987V5.03823H24.4987ZM23.9987 3.26911H18.8068V4.26911H23.9987V3.26911ZM12.9994 15.653C13.0003 15.653 13.0012 15.653 13.0018 15.653C13.0026 15.653 13.0031 15.653 13.0037 15.653V14.653C13.0028 14.653 13.0019 14.653 13.0012 14.653C13.0004 14.653 12.9999 14.653 12.9994 14.653V15.653ZM12.9951 15.653C12.9956 15.653 12.9961 15.653 12.9969 15.653C12.9976 15.653 12.9985 15.653 12.9994 15.653V14.653C12.9988 14.653 12.9983 14.653 12.9975 14.653C12.9969 14.653 12.996 14.653 12.9951 14.653V15.653ZM12.9951 15.653H13.0037V14.653H12.9951V15.653ZM1.5 3.76911V5.03823H2.5V3.76911H1.5ZM7.19196 3.26911H2V4.26911H7.19196V3.26911ZM7.69196 9.84561V3.76911H6.69196V9.84561H7.69196ZM6.8074 10.3456H7.19196V9.34561H6.8074V10.3456ZM3.0545 8.79112C4.04983 9.78645 5.39979 10.3456 6.8074 10.3456V9.34561C5.665 9.34561 4.5694 8.8918 3.76161 8.08401L3.0545 8.79112ZM1.5 5.03823C1.5 6.44584 2.05917 7.79579 3.0545 8.79112L3.76161 8.08401C2.95381 7.27622 2.5 6.18062 2.5 5.03823H1.5Z" fill="#B2B2B2"/>
</svg>
