<svg width="24" height="24" viewBox="0 0 24 24" fill="none" xmlns="http://www.w3.org/2000/svg">
<path fill-rule="evenodd" clip-rule="evenodd" d="M2 0H22C22.5303 0.000529477 23.0387 0.211413 23.4136 0.586371C23.7886 0.961329 23.9995 1.46973 24 2V22C23.9995 22.5303 23.7886 23.0387 23.4136 23.4136C23.0387 23.7886 22.5303 23.9995 22 24H2C1.46973 23.9995 0.961329 23.7886 0.586371 23.4136C0.211413 23.0387 0.000529477 22.5303 0 22V2C0.000529477 1.46973 0.211413 0.961329 0.586371 0.586371C0.961329 0.211413 1.46973 0.000529477 2 0ZM14 6V2H10V6H14ZM2 2V22H22.001L22 2H16V8H8V2H2ZM10 14H4V16H10V14ZM14 18H4V20H14V18Z" fill="#B2B2B2"/>
</svg>
