<svg width="24" height="24" viewBox="0 0 24 24" fill="none" xmlns="http://www.w3.org/2000/svg">
<path fill-rule="evenodd" clip-rule="evenodd" d="M11.1482 1.72896C10.4628 1.81938 9.61664 2.01362 8.41329 2.29157L7.04137 2.6086C6.02555 2.84302 5.32452 3.00599 4.78982 3.18907C4.27298 3.36656 3.98051 3.5407 3.7606 3.76172C3.53958 3.98163 3.36544 4.2741 3.18795 4.79094C3.00488 5.32564 2.8419 6.02555 2.60748 7.04249L2.29046 8.41329C2.0125 9.61776 1.81827 10.4639 1.72785 11.1493C1.63854 11.8168 1.65975 12.2689 1.77808 12.6797C1.89529 13.0905 2.11743 13.4846 2.54608 14.0037C2.98702 14.5372 3.59986 15.1523 4.47391 16.0264L6.51672 18.0692C8.03375 19.5862 9.1132 20.6634 10.0419 21.3711C10.9506 22.0655 11.6159 22.3256 12.2913 22.3256C12.9677 22.3256 13.6319 22.0655 14.5417 21.3711C15.4693 20.6634 16.5499 19.5851 18.0669 18.0681C19.5851 16.5499 20.6623 15.4705 21.3711 14.5428C22.0632 13.633 22.3245 12.9689 22.3245 12.2924C22.3245 11.617 22.0644 10.9528 21.37 10.0431C20.6623 9.11432 19.584 8.03375 18.0669 6.51672L16.0241 4.47391C15.1512 3.60098 14.5361 2.98813 14.0037 2.5472C13.4835 2.11855 13.0894 1.89641 12.6786 1.7792C12.2678 1.66087 11.8157 1.64078 11.1493 1.72896H11.1482ZM10.9294 0.0690446C11.7298 -0.0370027 12.4319 -0.0336539 13.1396 0.16951C13.8485 0.372674 14.4457 0.742165 15.0686 1.25566C15.6714 1.75352 16.3412 2.42329 17.1795 3.26162L19.296 5.3781C20.7583 6.84044 21.917 7.99915 22.7006 9.02836C23.5088 10.0855 23.9989 11.1035 23.9989 12.2924C23.9989 13.4823 23.5088 14.5004 22.7018 15.5575C21.917 16.5867 20.7594 17.7454 19.296 19.2078L19.2067 19.2971C17.7443 20.7594 16.5856 21.9181 15.5564 22.7018C14.4993 23.5099 13.4801 24 12.2913 24C11.1024 24 10.0844 23.5099 9.02613 22.7029C7.99803 21.9181 6.83932 20.7605 5.37587 19.2971L3.26162 17.1795C2.42441 16.3423 1.75352 15.6714 1.25566 15.0697C0.742165 14.4457 0.372675 13.8485 0.16951 13.1408C-0.0336538 12.4319 -0.0370027 11.7298 0.0690445 10.9294C0.170627 10.1547 0.384954 9.23041 0.65063 8.07617L0.985516 6.62165C1.20877 5.65829 1.38961 4.87243 1.60506 4.24619C1.83054 3.59093 2.11297 3.0406 2.57734 2.57622C3.04172 2.11185 3.59316 1.82831 4.24731 1.60506C4.87354 1.3885 5.65941 1.20766 6.62276 0.985516L8.07729 0.65063C9.23153 0.382721 10.1558 0.170627 10.9305 0.0679282L10.9294 0.0690446ZM9.19692 7.52919C8.93521 7.26747 8.58024 7.12044 8.21012 7.12044C7.84 7.12044 7.48504 7.26747 7.22333 7.52919C6.96161 7.7909 6.81458 8.14587 6.81458 8.51599C6.81458 8.88611 6.96161 9.24107 7.22333 9.50278C7.35291 9.63237 7.50676 9.73517 7.67607 9.8053C7.84539 9.87543 8.02686 9.91153 8.21012 9.91153C8.39339 9.91153 8.57486 9.87543 8.74417 9.8053C8.91349 9.73517 9.06733 9.63237 9.19692 9.50278C9.32651 9.3732 9.4293 9.21935 9.49944 9.05004C9.56957 8.88072 9.60567 8.69925 9.60567 8.51599C9.60567 8.33272 9.56957 8.15125 9.49944 7.98194C9.4293 7.81262 9.32651 7.65878 9.19692 7.52919ZM6.03895 6.34593C6.61463 5.77009 7.39548 5.44654 8.20973 5.44643C9.02397 5.44633 9.80491 5.76968 10.3807 6.34537C10.9566 6.92105 11.2801 7.70191 11.2802 8.51615C11.2803 9.3304 10.957 10.1113 10.3813 10.6872C9.80547 11.263 9.02447 11.5865 8.21012 11.5865C7.39577 11.5865 6.61478 11.263 6.03895 10.6872C5.46311 10.1113 5.13961 9.33034 5.13961 8.51599C5.13961 7.70164 5.46311 6.92176 6.03895 6.34593ZM13.105 12.1194C12.847 12.1292 12.6031 12.2403 12.4263 12.4286C11.9932 12.8617 12.1071 13.2937 12.2288 13.4154C12.3515 13.537 12.7836 13.6498 13.2156 13.2178C14.0907 12.3426 15.6022 12.0524 16.57 13.0202C17.3213 13.7715 17.3157 14.8498 16.8658 15.7038C16.9765 15.8647 17.0274 16.0592 17.0098 16.2537C16.9922 16.4482 16.9072 16.6304 16.7694 16.7688C16.6317 16.9072 16.4499 16.9931 16.2555 17.0116C16.0611 17.0302 15.8663 16.9802 15.7049 16.8703C15.2039 17.1449 14.6229 17.2365 14.0617 17.1293C13.954 17.1071 13.8516 17.064 13.7605 17.0023C13.6695 16.9406 13.5914 16.8616 13.5309 16.7698C13.4704 16.6779 13.4285 16.5751 13.4077 16.467C13.387 16.359 13.3877 16.248 13.4098 16.1402C13.4319 16.0325 13.4751 15.9301 13.5367 15.8391C13.5984 15.748 13.6774 15.67 13.7693 15.6094C13.8611 15.5489 13.964 15.507 14.072 15.4863C14.18 15.4655 14.2911 15.4662 14.3988 15.4883C14.5964 15.5296 14.9157 15.466 15.1891 15.1914C15.6212 14.7583 15.5084 14.3263 15.3867 14.2046C15.2639 14.0829 14.8319 13.9702 14.3999 14.4022C13.5248 15.2773 12.0133 15.5676 11.0455 14.5997C10.2942 13.8485 10.2998 12.7702 10.7497 11.9162C10.639 11.7553 10.5881 11.5608 10.6057 11.3663C10.6233 11.1718 10.7083 10.9896 10.8461 10.8512C10.9838 10.7127 11.1656 10.6268 11.36 10.6083C11.5544 10.5898 11.7492 10.6398 11.9106 10.7497C12.2902 10.5476 12.7065 10.4405 13.1218 10.4449C13.3438 10.447 13.556 10.5372 13.7115 10.6957C13.867 10.8541 13.9533 11.0679 13.9512 11.29C13.9491 11.512 13.8589 11.7241 13.7004 11.8797C13.542 12.0352 13.3271 12.1214 13.105 12.1194Z" fill="#B2B2B2"/>
</svg>
